<svg width="100%" viewBox="0 0 680 740" role="img" xmlns="http://www.w3.org/2000/svg" style="">
<title style="fill:rgb(0, 0, 0);stroke:none;color:rgb(255, 255, 255);stroke-width:1px;stroke-linecap:butt;stroke-linejoin:miter;opacity:1;font-family:&#34;Anthropic Sans&#34;, -apple-system, BlinkMacSystemFont, &#34;Segoe UI&#34;, sans-serif;font-size:16px;font-weight:400;text-anchor:start;dominant-baseline:auto">Keychan mascot v8</title>

<g transform="translate(340, 0)" fill="none" stroke="var(--color-text-primary)" stroke-linecap="round" stroke-linejoin="round" style="fill:none;stroke:rgb(250, 249, 245);color:rgb(255, 255, 255);stroke-width:1px;stroke-linecap:round;stroke-linejoin:round;opacity:1;font-family:&#34;Anthropic Sans&#34;, -apple-system, BlinkMacSystemFont, &#34;Segoe UI&#34;, sans-serif;font-size:16px;font-weight:400;text-anchor:start;dominant-baseline:auto">


<path d="&#xA;  M 0, 152&#xA;  Q -26, 150  -42, 138&#xA;  Q -56, 124  -58, 108&#xA;  Q -60, 90   -54, 76&#xA;  Q -46, 60   -40, 50&#xA;  Q -36, 38   -34, 28&#xA;  Q -32, 22   -28, 28&#xA;  Q -24, 38   -20, 48&#xA;  Q -14, 58   -8, 62&#xA;  Q -3, 65     0, 66&#xA;  Q 3, 65      8, 62&#xA;  Q 14, 58    20, 48&#xA;  Q 24, 38    28, 28&#xA;  Q 32, 22    34, 28&#xA;  Q 36, 38    40, 50&#xA;  Q 46, 60    54, 76&#xA;  Q 60, 90    58, 108&#xA;  Q 56, 124   42, 138&#xA;  Q 26, 150   0, 152&#xA;  Z&#xA;" stroke-width="3" style="fill:none;stroke:rgb(250, 249, 245);color:rgb(255, 255, 255);stroke-width:3px;stroke-linecap:round;stroke-linejoin:round;opacity:1;font-family:&#34;Anthropic Sans&#34;, -apple-system, BlinkMacSystemFont, &#34;Segoe UI&#34;, sans-serif;font-size:16px;font-weight:400;text-anchor:start;dominant-baseline:auto"></path>


<path d="M -8, 149 Q 0, 155 8, 149" stroke-width="1.5" opacity="0.35" style="fill:none;stroke:rgb(250, 249, 245);color:rgb(255, 255, 255);stroke-width:1.5px;stroke-linecap:round;stroke-linejoin:round;opacity:0.35;font-family:&#34;Anthropic Sans&#34;, -apple-system, BlinkMacSystemFont, &#34;Segoe UI&#34;, sans-serif;font-size:16px;font-weight:400;text-anchor:start;dominant-baseline:auto"></path>


<path d="&#xA;  M -28, 152&#xA;  Q -52, 138  -78, 134&#xA;  Q -108, 130 -122, 144&#xA;  Q -138, 160 -124, 178&#xA;  Q -110, 194 -82, 192&#xA;  Q -56, 188  -36, 178&#xA;  Q -24, 168  -18, 158&#xA;" stroke-width="2.8" style="fill:none;stroke:rgb(250, 249, 245);color:rgb(255, 255, 255);stroke-width:2.8px;stroke-linecap:round;stroke-linejoin:round;opacity:1;font-family:&#34;Anthropic Sans&#34;, -apple-system, BlinkMacSystemFont, &#34;Segoe UI&#34;, sans-serif;font-size:16px;font-weight:400;text-anchor:start;dominant-baseline:auto"></path>

<path d="&#xA;  M -30, 156&#xA;  Q -48, 148  -68, 145&#xA;  Q -90, 142  -102, 152&#xA;  Q -114, 164 -102, 176&#xA;  Q -88, 186  -64, 182&#xA;  Q -44, 176  -32, 166&#xA;" stroke-width="1.2" opacity="0.4" style="fill:none;stroke:rgb(250, 249, 245);color:rgb(255, 255, 255);stroke-width:1.2px;stroke-linecap:round;stroke-linejoin:round;opacity:0.4;font-family:&#34;Anthropic Sans&#34;, -apple-system, BlinkMacSystemFont, &#34;Segoe UI&#34;, sans-serif;font-size:16px;font-weight:400;text-anchor:start;dominant-baseline:auto"></path>


<path d="&#xA;  M 28, 152&#xA;  Q 52, 138   78, 134&#xA;  Q 108, 130  122, 144&#xA;  Q 138, 160  124, 178&#xA;  Q 110, 194  82, 192&#xA;  Q 56, 188   36, 178&#xA;  Q 24, 168   18, 158&#xA;" stroke-width="2.8" style="fill:none;stroke:rgb(250, 249, 245);color:rgb(255, 255, 255);stroke-width:2.8px;stroke-linecap:round;stroke-linejoin:round;opacity:1;font-family:&#34;Anthropic Sans&#34;, -apple-system, BlinkMacSystemFont, &#34;Segoe UI&#34;, sans-serif;font-size:16px;font-weight:400;text-anchor:start;dominant-baseline:auto"></path>

<path d="&#xA;  M 30, 156&#xA;  Q 48, 148   68, 145&#xA;  Q 90, 142   102, 152&#xA;  Q 114, 164  102, 176&#xA;  Q 88, 186   64, 182&#xA;  Q 44, 176   32, 166&#xA;" stroke-width="1.2" opacity="0.4" style="fill:none;stroke:rgb(250, 249, 245);color:rgb(255, 255, 255);stroke-width:1.2px;stroke-linecap:round;stroke-linejoin:round;opacity:0.4;font-family:&#34;Anthropic Sans&#34;, -apple-system, BlinkMacSystemFont, &#34;Segoe UI&#34;, sans-serif;font-size:16px;font-weight:400;text-anchor:start;dominant-baseline:auto"></path>


<path d="&#xA;  M 0, 146&#xA;  Q 13, 156  14, 170&#xA;  Q 14, 184  7, 196&#xA;  Q 3, 202   0, 204&#xA;  Q -3, 202  -7, 196&#xA;  Q -14, 184 -14, 170&#xA;  Q -13, 156  0, 146&#xA;  Z&#xA;" stroke-width="2.5" style="fill:none;stroke:rgb(250, 249, 245);color:rgb(255, 255, 255);stroke-width:2.5px;stroke-linecap:round;stroke-linejoin:round;opacity:1;font-family:&#34;Anthropic Sans&#34;, -apple-system, BlinkMacSystemFont, &#34;Segoe UI&#34;, sans-serif;font-size:16px;font-weight:400;text-anchor:start;dominant-baseline:auto"></path>

<path d="&#xA;  M 0, 156&#xA;  Q 6, 163  6, 173&#xA;  Q 6, 183  3, 191&#xA;  Q 1, 195  0, 196&#xA;  Q -1, 195 -3, 191&#xA;  Q -6, 183 -6, 173&#xA;  Q -6, 163  0, 156&#xA;  Z&#xA;" stroke-width="1" opacity="0.3" style="fill:none;stroke:rgb(250, 249, 245);color:rgb(255, 255, 255);stroke-width:1px;stroke-linecap:round;stroke-linejoin:round;opacity:0.3;font-family:&#34;Anthropic Sans&#34;, -apple-system, BlinkMacSystemFont, &#34;Segoe UI&#34;, sans-serif;font-size:16px;font-weight:400;text-anchor:start;dominant-baseline:auto"></path>


<path d="&#xA;  M -5, 204&#xA;  Q -14, 234  -18, 266&#xA;  Q -22, 298  -14, 324&#xA;  Q -4, 346    10, 358&#xA;  Q 18, 368   15, 388&#xA;  Q 10, 414   -2, 438&#xA;  Q -22, 468  -40, 498&#xA;  Q -60, 528  -52, 556&#xA;  Q -42, 580  -20, 590&#xA;  Q 2, 598    20, 588&#xA;  Q 36, 576   38, 556&#xA;  Q 38, 538   26, 528&#xA;  Q 12, 520   2, 532&#xA;  Q -8, 546   -2, 564&#xA;  Q 4, 580    18, 583&#xA;" stroke-width="2.8" style="fill:none;stroke:rgb(250, 249, 245);color:rgb(255, 255, 255);stroke-width:2.8px;stroke-linecap:round;stroke-linejoin:round;opacity:1;font-family:&#34;Anthropic Sans&#34;, -apple-system, BlinkMacSystemFont, &#34;Segoe UI&#34;, sans-serif;font-size:16px;font-weight:400;text-anchor:start;dominant-baseline:auto"></path>


<path d="&#xA;  M 5, 204&#xA;  Q 14, 234   18, 266&#xA;  Q 22, 298   14, 324&#xA;  Q 4, 346    -10, 358&#xA;  Q -16, 368  -14, 386&#xA;  Q -10, 404  -4, 418&#xA;  Q 2, 430    6, 438&#xA;" stroke-width="2.8" style="fill:none;stroke:rgb(250, 249, 245);color:rgb(255, 255, 255);stroke-width:2.8px;stroke-linecap:round;stroke-linejoin:round;opacity:1;font-family:&#34;Anthropic Sans&#34;, -apple-system, BlinkMacSystemFont, &#34;Segoe UI&#34;, sans-serif;font-size:16px;font-weight:400;text-anchor:start;dominant-baseline:auto"></path>


<path d="&#xA;  M 18, 583&#xA;  L 22, 596&#xA;  L 20, 602&#xA;  L 34, 602&#xA;  L 34, 636&#xA;  L 20, 636&#xA;  L 20, 602&#xA;" stroke-width="2.2" style="fill:none;stroke:rgb(250, 249, 245);color:rgb(255, 255, 255);stroke-width:2.2px;stroke-linecap:round;stroke-linejoin:round;opacity:1;font-family:&#34;Anthropic Sans&#34;, -apple-system, BlinkMacSystemFont, &#34;Segoe UI&#34;, sans-serif;font-size:16px;font-weight:400;text-anchor:start;dominant-baseline:auto"></path>

<path d="M 34, 610 L 42, 610 L 42, 616 L 34, 616" stroke-width="1.8" style="fill:none;stroke:rgb(250, 249, 245);color:rgb(255, 255, 255);stroke-width:1.8px;stroke-linecap:round;stroke-linejoin:round;opacity:1;font-family:&#34;Anthropic Sans&#34;, -apple-system, BlinkMacSystemFont, &#34;Segoe UI&#34;, sans-serif;font-size:16px;font-weight:400;text-anchor:start;dominant-baseline:auto"></path>
<path d="M 34, 622 L 40, 622 L 40, 628 L 34, 628" stroke-width="1.8" style="fill:none;stroke:rgb(250, 249, 245);color:rgb(255, 255, 255);stroke-width:1.8px;stroke-linecap:round;stroke-linejoin:round;opacity:1;font-family:&#34;Anthropic Sans&#34;, -apple-system, BlinkMacSystemFont, &#34;Segoe UI&#34;, sans-serif;font-size:16px;font-weight:400;text-anchor:start;dominant-baseline:auto"></path>

</g>
</svg>